<?xml version="1.0" encoding="utf-8"?>
<!-- Generator: Adobe Illustrator 19.2.1, SVG Export Plug-In . SVG Version: 6.00 Build 0)  -->
<svg version="1.1" id="Layer_1" xmlns="http://www.w3.org/2000/svg" xmlns:xlink="http://www.w3.org/1999/xlink" x="0px" y="0px"
	 viewBox="0 0 340.6 139.4" style="enable-background:new 0 0 340.6 139.4;" xml:space="preserve">
<style type="text/css">
	.st0{fill:#CCCC33;}
	.st1{font-family:'OleoScript-Bold';}
	.st2{font-size:100px;}
	.st3{fill:#3FA9F5;}
	.st4{fill:#7AC943;}
	.st5{fill:#FF931E;}
	.st6{fill:#FF1D25;}
	.st7{fill:#FF7BAC;}
	.st8{fill:#662D91;}
</style>
<title>Logo</title>
<text transform="matrix(1 0 0 1 13 106.5)" class="st0 st1 st2">Weekly</text>
<path class="st3" d="M27.6,103.7c-2.3-2.9-3.5-6.5-3.3-10.2c0-4.1,0.3-9.5,0.8-16s0.8-12.6,0.8-18.1c0-5.5-0.5-9.6-1.6-12.2
	c-1.2-2-2.6-3.9-4.2-5.7l-1.3-1.5l0.4-2c5.9-1.5,13.9-2.3,24-2.3c1.7,1.9,2.5,5.7,2.5,11.4c0,5.7-0.4,12.4-1.2,20.3
	c-0.8,7.9-1.2,13.6-1.2,17.2c0,3.6,0.3,6,0.8,7.1c0.4,1.1,1.5,1.7,2.6,1.7c1.2,0,2.8-0.7,4.7-2c1.7-1.1,3.3-2.5,4.6-4.1
	c0-0.4,0.5-4.7,1.4-13c0.9-6.8,1.4-13.6,1.4-20.4c0.1-4.8-0.6-9.7-1.9-14.3c5.8-2.7,12.8-4,20.9-4.1c1.1,2.4,1.7,6.1,1.7,11
	c0,4.9-0.9,12.6-2.6,22.9c-1.7,10.3-2.6,16.4-2.6,18.3c0,3.7,1,5.6,2.9,5.6c1.9,0,4.3-1.7,7.3-5c3.3-3.9,6-8.2,8.1-12.9
	c2.3-4.6,3.6-9.6,4.1-14.8l-11.3-7.6c0.4-5.6,2.7-11,6.4-15.2c0.8-0.9,1.8-1.7,2.8-2.3c4.8,0,8.4,1.3,10.9,3.8
	c2.3,2.2,3.6,5.2,3.7,8.4c-0.2,6.4-1.4,12.7-3.7,18.6c-2.4,6.8-5.6,13.4-9.4,19.6c-3.6,5.9-8.2,11.1-13.6,15.4
	c-5.2,4.2-10.4,6.3-15.4,6.3c-2.6,0-5.1-0.9-7.1-2.6c-2.1-1.7-3.5-4.4-4.2-7.9c-6.7,7-13.1,10.5-19.2,10.5
	C33.1,107.8,29.8,106.3,27.6,103.7z"/>
<path class="st4" d="M107,88.4c0-8.3,2.5-14.7,7.6-19.3c5.1-4.6,11.8-7.1,18.7-6.9c5.1,0,9.2,1.1,12.4,3.4c3,2,4.7,5.4,4.6,8.9
	c0,2.6-0.9,5.2-2.5,7.3c-1.6,2.1-3.7,3.8-6.1,4.9c-4.2,2-8.6,3.4-13.2,4.1l-2.5,0.3c0.7,4.4,2.9,6.6,6.6,6.6c1.8,0,3.6-0.4,5.3-1
	c1.6-0.5,3.2-1.3,4.6-2.1l1.7-1l3.2,4.3l-1.1,1.1c-0.4,0.4-1.4,1.2-2.9,2.4c-1.5,1.1-3,2.1-4.7,3c-2,1-4.1,1.8-6.2,2.4
	c-2.5,0.7-5,1-7.6,1c-5.7,0-10.1-1.7-13.1-5C108.5,99.3,107,94.6,107,88.4z M131.3,79.8c1.9-2.9,2.9-5.3,2.9-7.3c0-2-0.6-3-1.7-3
	c-1.7,0-3.2,1.3-4.6,3.9c-1.4,2.6-2.2,6.3-2.4,11.1C127.4,84.2,129.4,82.6,131.3,79.8L131.3,79.8z"/>
<path class="st5" d="M150.6,88.4c0-8.3,2.5-14.7,7.5-19.3c5.1-4.6,11.8-7.1,18.6-6.9c5.1,0,9.2,1.1,12.4,3.4c3,2,4.7,5.4,4.6,8.9
	c0,2.6-0.9,5.2-2.5,7.3c-1.6,2.1-3.7,3.8-6.1,4.9c-4.2,2-8.6,3.4-13.2,4.1l-2.5,0.3c0.7,4.4,2.9,6.6,6.6,6.6c1.8,0,3.6-0.4,5.3-1
	c1.6-0.5,3.2-1.3,4.6-2.1l1.7-1l3.2,4.3l-1.1,1.1c-0.4,0.4-1.4,1.2-2.9,2.4c-1.5,1.1-3,2.1-4.7,3c-2,1-4.1,1.8-6.2,2.4
	c-2.5,0.7-5,1-7.6,1c-5.7,0-10-1.7-13.1-5S150.6,94.6,150.6,88.4z M174.9,79.8c1.9-2.9,2.9-5.3,2.9-7.3c0-2-0.6-3-1.7-3
	c-1.7,0-3.2,1.3-4.6,3.9c-1.4,2.6-2.2,6.3-2.4,11.1C171,84.2,173,82.6,174.9,79.8L174.9,79.8z"/>
<path class="st6" d="M206.5,40.4c0-1.5-0.1-3.1-0.5-4.6c5.9-1.7,11.9-2.6,18-2.7c0.7,0.8,1,2.6,1,5.3c0,4.9-1.5,14.2-4.5,28
	c5.3-2.8,10-4.2,14.1-4.2c4.1,0,7.2,0.8,9.4,2.5c2.2,1.7,3.4,4.3,3.2,7c0,5.8-4.3,9.9-12.9,12.4c2.1,9.2,4.2,13.8,6.2,13.8l4.8-1.3
	l2.2,4.9c-2.4,1.7-5,3.1-7.7,4.1c-3.2,1.3-6.6,2.1-10,2.1c-2.9,0.2-5.7-1.2-7.3-3.6c-1.8-2.8-2.9-6.1-3.2-9.4
	c-0.5-4.3-0.7-8.7-0.7-13c2.8-0.6,5.3-1.8,7.6-3.5c1.9-1.5,2.8-3,2.8-4.5c0-1.5-0.8-2.3-2.4-2.2c-1.5,0.1-3.1,0.4-4.5,1.1
	c-1.3,0.5-2.6,1.2-3.8,2.1c-3.6,15.2-5.4,25.4-5.4,30.5c-6,1.2-12.2,1.8-18.3,1.7c-0.1-0.6-0.1-1.3-0.1-1.9c0-3.5,2-13.6,5.9-30.5
	S206.5,46.3,206.5,40.4z"/>
<path class="st7" d="M268.9,105.7c-3,1.2-6.2,1.9-9.5,2c-2.6,0.1-5.1-0.8-7-2.5c-1.8-1.6-2.7-4-2.7-7s1.7-11.6,5-25.6
	c3.3-14,5-24.4,5-31.2c0-1.9-0.2-3.8-0.6-5.6c5.9-1.7,12-2.6,18.2-2.6c0.7,1.6,1,3.4,0.9,5.2c0,4.5-1.7,14.4-5,29.6s-5,24-5,26.3
	s0.4,3.5,1.2,3.5c1.5-0.2,2.9-0.7,4.3-1.3l1.1-0.5l2.4,4.9C274.8,103,272,104.6,268.9,105.7z"/>
<path class="st8" d="M326.9,62.9h0.8c-0.3,1.7-0.9,5.5-1.7,11.2c-1.8,13.1-3.7,22.9-5.8,29.6c-5.1,16.8-13.4,25.2-24.7,25.2
	c-2.9,0.1-5.8-0.6-8.2-2.1c-2-1.2-3.2-3.3-3.1-5.6c-0.1-2,0.5-4,1.6-5.7c1.3-1.6,2.9-2.9,4.8-3.8c4.1-1.9,8.5-3.4,13-4.3
	c0.5-2.5,0.9-4.2,1-4.9c-4.5,2.6-9.6,4.1-14.8,4.2c-6.4,0-9.6-3.1-9.6-9.4c0-2.2,0.7-6.5,2.2-13s2.2-10.9,2.2-13.4
	c0.1-1.8-0.1-3.7-0.5-5.5c7.9-1.7,14-2.5,18.3-2.5c0.5,0.8,0.8,2.4,0.8,4.8s-0.8,6.9-2.2,13.8s-2.2,10.8-2.2,12c0,2.1,1,3.1,3,3.1
	c1.3,0,2.7-0.4,3.9-0.9c0.5-3.4,1.3-8.6,2.2-15.5c1-7,1.6-11.8,2-14.4c2.5-1,5.2-1.7,7.9-2C320.7,63.3,323.8,63,326.9,62.9z
	 M291.2,119.2c0,1.5,1,2.3,3,2.3c1,0,2.3-0.7,4-2c1.8-1.6,3.2-3.7,4-6C294.9,114.7,291.2,116.6,291.2,119.2L291.2,119.2z"/>
</svg>
