<svg id="Layer_1" data-name="Layer 1" xmlns="http://www.w3.org/2000/svg" viewBox="0 0 340.56 139.37"><defs><style>.cls-1{font-size:100px;fill:#cc3;font-family:Oleo Script;font-weight:700;}.cls-2{fill:#387ef5;}.cls-3{fill:#11c1f3;}.cls-4{fill:#33cd5f;}.cls-5{fill:#ffc900;}.cls-6{fill:#ef473a;}.cls-7{fill:#886aea;}</style></defs><title>logo</title><text class="cls-1" transform="translate(0 85.5)">Weekly</text><path class="cls-2" d="M97.62,286.32a15.54,15.54,0,0,1-3.35-10.25q0-6.2.8-16t0.8-18.1q0-8.3-1.6-12.2a35.77,35.77,0,0,0-4.2-5.7l-1.3-1.5,0.4-2q8.8-2.3,24-2.3,2.5,2.9,2.5,11.4T114.47,250q-1.2,11.85-1.2,17.25t0.8,7.1a2.69,2.69,0,0,0,2.6,1.7q1.8,0,4.7-2A19.45,19.45,0,0,0,126,270q0-.6,1.45-12.95a181.81,181.81,0,0,0,1.45-20.45,48.92,48.92,0,0,0-1.9-14.3q8.7-4,20.9-4.1,1.7,3.6,1.7,11T147,252.07q-2.55,15.5-2.55,18.3,0,5.6,2.85,5.6t7.3-5a52.57,52.57,0,0,0,8.1-12.85,40.83,40.83,0,0,0,4.05-14.75l-11.3-7.6a26.19,26.19,0,0,1,6.4-15.2,13.6,13.6,0,0,1,2.8-2.3q7.2,0,10.9,3.8a11.81,11.81,0,0,1,3.7,8.4,56.72,56.72,0,0,1-3.7,18.65,97.21,97.21,0,0,1-9.45,19.55,62,62,0,0,1-13.6,15.4q-7.85,6.3-15.35,6.3a10.73,10.73,0,0,1-7.1-2.6q-3.1-2.6-4.2-7.9-10,10.5-19.2,10.5A11.13,11.13,0,0,1,97.62,286.32Z" transform="translate(-83.07 -203.67)"/><path class="cls-3" d="M177.07,271.07q0-12.4,7.55-19.3a26.62,26.62,0,0,1,18.65-6.9q7.7,0,12.35,3.35a10.5,10.5,0,0,1,4.65,8.95,11.54,11.54,0,0,1-2.5,7.3,16.69,16.69,0,0,1-6.1,4.9,47.89,47.89,0,0,1-13.2,4.1l-2.5.3q1.1,6.6,6.6,6.6a15.72,15.72,0,0,0,5.3-1,23.09,23.09,0,0,0,4.6-2.15l1.7-1,3.2,4.3-1.1,1.1q-0.6.6-2.85,2.35a32.21,32.21,0,0,1-4.7,3,31.3,31.3,0,0,1-6.25,2.35,28.46,28.46,0,0,1-7.6,1q-8.5,0-13.15-5T177.07,271.07Zm24.3-8.65q2.9-4.35,2.9-7.3t-1.7-3q-2.5,0-4.6,3.9t-2.4,11.1Q198.47,266.77,201.37,262.42Z" transform="translate(-83.07 -203.67)"/><path class="cls-4" d="M220.67,271.07q0-12.4,7.55-19.3a26.62,26.62,0,0,1,18.65-6.9q7.7,0,12.35,3.35a10.5,10.5,0,0,1,4.65,8.95,11.54,11.54,0,0,1-2.5,7.3,16.69,16.69,0,0,1-6.1,4.9,47.88,47.88,0,0,1-13.2,4.1l-2.5.3q1.1,6.6,6.6,6.6a15.72,15.72,0,0,0,5.3-1,23.12,23.12,0,0,0,4.6-2.15l1.7-1,3.2,4.3-1.1,1.1q-0.6.6-2.85,2.35a32.21,32.21,0,0,1-4.7,3,31.31,31.31,0,0,1-6.25,2.35,28.46,28.46,0,0,1-7.6,1q-8.5,0-13.15-5T220.67,271.07Zm24.3-8.65q2.9-4.35,2.9-7.3t-1.7-3q-2.5,0-4.6,3.9t-2.4,11.1Q242.07,266.77,245,262.42Z" transform="translate(-83.07 -203.67)"/><path class="cls-5" d="M276.57,223.07a19.08,19.08,0,0,0-.5-4.6,69,69,0,0,1,18-2.7q1,1.2,1,5.3,0,7.3-4.5,28,8-4.2,14.15-4.2t9.4,2.5a8.33,8.33,0,0,1,3.25,7q0,8.7-12.9,12.4,3.2,13.8,6.2,13.8l4.8-1.3,2.2,4.9a31.76,31.76,0,0,1-7.7,4.1,26.66,26.66,0,0,1-10,2.1,8.32,8.32,0,0,1-7.3-3.6,20.59,20.59,0,0,1-3.2-9.4,109,109,0,0,1-.7-13,19.63,19.63,0,0,0,7.6-3.45q2.8-2.25,2.8-4.5t-2.4-2.25a11.53,11.53,0,0,0-4.45,1.1,15.94,15.94,0,0,0-3.75,2.1q-5.4,22.8-5.4,30.5a85.89,85.89,0,0,1-18.3,1.7,15.63,15.63,0,0,1-.1-1.9q0-5.2,5.9-30.45T276.57,223.07Z" transform="translate(-83.07 -203.67)"/><path class="cls-6" d="M339,288.37a26.61,26.61,0,0,1-9.45,2,9.94,9.94,0,0,1-7-2.45q-2.7-2.45-2.7-7t5-25.65q5-21,5-31.25a33.44,33.44,0,0,0-.6-5.6,68.17,68.17,0,0,1,18.2-2.6,11.17,11.17,0,0,1,.9,5.2q0,6.8-5,29.65t-5,26.35q0,3.5,1.2,3.5a16.08,16.08,0,0,0,4.3-1.3l1.1-.5,2.4,4.9A27.84,27.84,0,0,1,339,288.37Z" transform="translate(-83.07 -203.67)"/><path class="cls-7" d="M397,245.57h0.8q-0.5,2.6-1.7,11.2-2.7,19.6-5.8,29.6-7.7,25.2-24.7,25.2a14.37,14.37,0,0,1-8.25-2.15,6.52,6.52,0,0,1-3.15-5.6,9.39,9.39,0,0,1,1.65-5.7,12.45,12.45,0,0,1,4.75-3.75,58.08,58.08,0,0,1,13-4.3q0.8-3.8,1-4.9a31.33,31.33,0,0,1-14.8,4.2q-9.6,0-9.6-9.4,0-3.3,2.2-12.95t2.2-13.35a22.23,22.23,0,0,0-.5-5.5q11.8-2.5,18.3-2.5,0.8,1.2.8,4.75t-2.25,13.75q-2.25,10.2-2.25,12,0,3.1,3,3.1a10.51,10.51,0,0,0,3.9-.9q0.8-5.1,2.25-15.55t2-14.35a32.07,32.07,0,0,1,7.85-2A58.86,58.86,0,0,1,397,245.57Zm-35.7,56.3q0,2.3,3,2.3,1.5,0,4-2a14.19,14.19,0,0,0,3.95-6Q361.27,298,361.27,301.87Z" transform="translate(-83.07 -203.67)"/></svg>